<?xml version="1.0" standalone="no"?>
<!DOCTYPE svg PUBLIC "-//W3C//DTD SVG 20010904//EN"
 "http://www.w3.org/TR/2001/REC-SVG-20010904/DTD/svg10.dtd">
<svg version="1.0" xmlns="http://www.w3.org/2000/svg"
 width="504.000000pt" height="504.000000pt" viewBox="0 0 504.000000 504.000000"
 preserveAspectRatio="xMidYMid meet">
<metadata>
Created by potrace 1.14, written by Peter Selinger 2001-2017
</metadata>
<g transform="translate(0.000000,504.000000) scale(0.100000,-0.100000)"
fill="#000000" stroke="none">
<path d="M1655 4739 c-4 -6 -42 -10 -93 -9 -48 1 -89 1 -92 0 -3 -1 -26 -3
-53 -4 -26 -2 -50 -6 -54 -9 -3 -4 -13 -1 -21 6 -9 6 -13 7 -9 1 6 -10 -105
-38 -154 -39 -9 0 -23 -6 -31 -13 -8 -6 -18 -9 -21 -5 -4 3 -7 1 -7 -6 0 -7
-4 -10 -9 -6 -5 3 -12 1 -16 -5 -3 -5 -14 -10 -23 -10 -9 0 -30 -7 -46 -15
-15 -8 -33 -12 -39 -8 -6 4 -7 1 -2 -7 6 -10 3 -12 -13 -8 -12 4 -20 2 -16 -3
3 -5 -7 -14 -23 -20 -15 -6 -36 -18 -45 -26 -10 -9 -18 -13 -18 -10 0 9 -93
-54 -135 -91 -8 -7 -15 -11 -15 -8 0 3 -14 -8 -32 -24 -17 -16 -35 -27 -40
-24 -5 3 -7 2 -6 -3 2 -5 -24 -37 -57 -72 -99 -105 -101 -108 -124 -145 -13
-20 -27 -34 -32 -31 -5 4 -6 0 -4 -8 3 -7 -6 -25 -19 -40 -14 -15 -25 -28 -24
-30 1 -1 -18 -42 -43 -92 -25 -49 -47 -94 -49 -100 -1 -5 -6 -20 -11 -33 -5
-13 -9 -30 -9 -38 0 -8 -4 -14 -9 -14 -5 0 -8 -8 -6 -17 1 -10 -2 -27 -8 -38
-6 -11 -11 -27 -12 -35 -2 -38 -18 -109 -24 -106 -3 2 -4 -16 -2 -41 2 -36 0
-44 -10 -37 -12 6 -12 5 -1 -8 9 -12 10 -18 2 -23 -8 -5 -8 -11 -1 -19 6 -7 8
-16 5 -19 -3 -3 -6 -123 -6 -266 -1 -190 -4 -259 -12 -254 -7 5 -7 2 1 -8 16
-20 16 -962 -1 -952 -7 5 -7 2 1 -8 17 -21 16 -962 -1 -952 -8 5 -8 3 1 -8 8
-10 11 -109 11 -352 0 -186 2 -341 6 -344 9 -9 3425 -9 3419 0 -3 5 8 7 23 6
16 -2 35 0 42 4 6 5 12 6 12 3 0 -3 12 -1 26 4 19 8 23 7 18 -3 -6 -9 -5 -9 7
0 13 10 76 30 126 39 12 2 42 13 67 24 26 11 49 19 51 19 12 1 125 58 183 93
35 21 69 35 75 31 6 -3 7 -1 3 5 -8 13 28 35 39 24 5 -4 4 -1 0 7 -6 11 -4 13
8 8 11 -4 14 -2 11 8 -3 7 3 16 15 20 12 3 21 10 21 15 0 5 9 12 20 15 11 4
18 11 15 16 -4 5 -2 9 3 9 5 0 23 13 40 29 16 16 33 26 37 23 4 -4 6 -2 5 3
-4 18 0 38 6 32 6 -6 66 64 113 131 12 18 27 29 33 26 7 -4 8 -2 4 4 -8 14 24
73 36 66 4 -3 5 1 3 8 -3 8 3 23 14 35 11 11 17 23 14 26 -8 9 23 48 32 39 5
-4 5 -1 0 6 -4 8 -3 24 3 35 29 62 42 97 42 111 0 9 5 16 11 16 5 0 8 4 5 9
-3 5 1 31 9 57 8 27 17 67 21 89 3 22 9 60 14 84 4 25 7 53 5 63 -2 10 -1 18
3 18 4 0 6 78 6 173 -1 116 2 177 10 186 8 11 8 13 0 8 -16 -9 -16 692 0 712
8 11 8 13 -2 7 -17 -10 -16 212 1 233 9 11 9 13 1 8 -16 -9 -16 692 0 712 8
11 8 13 -2 7 -17 -10 -16 212 1 233 8 10 8 13 1 8 -8 -5 -11 114 -11 434 0
242 -2 442 -5 444 -2 3 -43 5 -91 6 -62 1 -85 4 -80 13 3 6 1 6 -8 -1 -7 -7
-37 -13 -67 -13 -40 0 -51 3 -46 13 6 10 4 10 -7 0 -18 -18 -123 -18 -113 0 6
10 4 10 -7 0 -7 -7 -37 -13 -67 -13 -40 0 -51 3 -46 13 6 10 4 10 -7 0 -18
-18 -123 -18 -113 0 6 10 4 10 -7 0 -19 -19 -483 -19 -473 0 6 10 4 10 -7 0
-7 -7 -37 -13 -67 -13 -40 0 -51 3 -46 13 6 10 4 10 -7 0 -7 -7 -37 -13 -67
-13 -40 0 -51 3 -46 13 6 10 4 10 -7 0 -7 -7 -37 -13 -67 -13 -40 0 -51 3 -46
13 6 10 4 10 -7 0 -7 -7 -37 -13 -67 -13 -40 0 -51 3 -46 13 6 10 4 10 -7 0
-10 -10 -74 -13 -247 -13 -184 0 -232 3 -226 13 6 10 4 10 -7 0 -7 -7 -37 -13
-67 -13 -40 0 -51 3 -46 13 6 10 4 10 -7 0 -7 -7 -37 -13 -67 -13 -40 0 -51 3
-46 13 6 10 4 10 -7 0 -7 -7 -37 -13 -67 -13 -40 0 -51 3 -46 13 6 10 4 10 -7
0 -7 -7 -37 -13 -67 -13 -40 0 -51 3 -46 13 6 10 4 10 -7 0 -10 -10 -74 -13
-247 -13 -184 0 -232 3 -226 13 6 10 4 10 -7 0 -16 -15 -123 -18 -114 -3 3 6
4 10 1 10 -3 0 -8 -5 -11 -11z"/>
<path d="M155 3301 c-3 -5 -2 -12 3 -15 5 -3 9 1 9 9 0 17 -3 19 -12 6z"/>
<path d="M155 2341 c-3 -5 -2 -12 3 -15 5 -3 9 1 9 9 0 17 -3 19 -12 6z"/>
<path d="M4416 633 c-6 -14 -5 -15 5 -6 7 7 10 15 7 18 -3 3 -9 -2 -12 -12z"/>
<path d="M3986 338 c3 -5 10 -6 15 -3 13 9 11 12 -6 12 -8 0 -12 -4 -9 -9z"/>
<path d="M1066 238 c3 -5 10 -6 15 -3 13 9 11 12 -6 12 -8 0 -12 -4 -9 -9z"/>
<path d="M1706 238 c3 -5 10 -6 15 -3 13 9 11 12 -6 12 -8 0 -12 -4 -9 -9z"/>
<path d="M2346 238 c3 -5 10 -6 15 -3 13 9 11 12 -6 12 -8 0 -12 -4 -9 -9z"/>
<path d="M2986 238 c3 -5 10 -6 15 -3 13 9 11 12 -6 12 -8 0 -12 -4 -9 -9z"/>
</g>
</svg>
