<?xml version="1.0" standalone="no"?>
<!DOCTYPE svg PUBLIC "-//W3C//DTD SVG 20010904//EN"
 "http://www.w3.org/TR/2001/REC-SVG-20010904/DTD/svg10.dtd">
<svg version="1.0" xmlns="http://www.w3.org/2000/svg"
 width="585.000000pt" height="585.000000pt" viewBox="0 0 585.000000 585.000000"
 preserveAspectRatio="xMidYMid meet">
<metadata>
Created by potrace 1.14, written by Peter Selinger 2001-2017
</metadata>
<g transform="translate(0.000000,585.000000) scale(0.100000,-0.100000)"
fill="#000000" stroke="none">
<path d="M2285 5610 c-3 -6 1 -7 9 -4 18 7 21 14 7 14 -6 0 -13 -4 -16 -10z"/>
<path d="M3245 5610 c-3 -6 1 -7 9 -4 18 7 21 14 7 14 -6 0 -13 -4 -16 -10z"/>
<path d="M4205 5610 c-3 -6 1 -7 9 -4 18 7 21 14 7 14 -6 0 -13 -4 -16 -10z"/>
<path d="M5165 5610 c-3 -6 1 -7 9 -4 18 7 21 14 7 14 -6 0 -13 -4 -16 -10z"/>
<path d="M5230 5611 c0 -6 4 -13 10 -16 6 -3 7 1 4 9 -7 18 -14 21 -14 7z"/>
<path d="M1953 5583 c5 -8 -2 -11 -23 -11 -17 1 -33 -2 -36 -5 -3 -3 -16 -2
-29 3 -12 5 -26 5 -31 0 -5 -5 -31 -11 -59 -13 -70 -8 -115 -16 -180 -33 -5
-1 -21 -5 -35 -7 -14 -3 -25 -6 -25 -7 0 -1 -7 -3 -15 -5 -34 -8 -225 -77
-230 -83 -3 -4 -12 -8 -20 -10 -8 -2 -24 -11 -34 -20 -15 -13 -17 -14 -11 -2
5 10 1 8 -13 -4 -12 -10 -28 -16 -36 -13 -9 4 -18 1 -22 -5 -4 -7 -3 -8 4 -4
7 4 12 2 12 -3 0 -6 -6 -11 -13 -11 -7 0 -36 -15 -64 -34 -34 -22 -55 -30 -61
-24 -7 7 -10 5 -9 -4 2 -17 -127 -120 -139 -110 -4 4 -4 2 -1 -4 4 -7 -10 -23
-31 -38 -20 -15 -62 -54 -92 -88 -30 -33 -70 -75 -88 -94 -17 -19 -32 -37 -32
-39 0 -5 -25 -37 -48 -60 -6 -8 -12 -17 -12 -21 0 -4 -11 -21 -24 -38 -12 -17
-30 -45 -40 -63 -11 -23 -21 -31 -34 -27 -12 4 -13 3 -4 -3 13 -10 6 -43 -9
-43 -5 0 -8 -3 -7 -7 3 -15 -14 -63 -22 -63 -5 0 -13 -15 -19 -33 -6 -19 -20
-51 -31 -72 -11 -22 -20 -48 -20 -58 0 -10 -3 -16 -7 -14 -5 3 -9 -5 -9 -16
-2 -22 -6 -38 -16 -67 -19 -51 -50 -204 -51 -247 0 -7 -4 -13 -8 -13 -5 0 -6
-7 -2 -16 3 -9 0 -20 -8 -25 -9 -6 -10 -9 -2 -9 8 0 10 -11 8 -32 -3 -18 -5
-126 -6 -240 0 -154 -3 -208 -12 -208 -9 0 -9 -2 -1 -8 16 -10 16 -464 0 -474
-8 -6 -8 -8 1 -8 7 0 11 -19 11 -50 1 -37 -2 -48 -11 -43 -8 5 -8 2 1 -9 17
-21 16 -368 -1 -368 -9 0 -9 -2 -1 -8 16 -10 16 -464 0 -474 -8 -6 -8 -8 1 -8
7 0 11 -19 11 -50 1 -37 -2 -48 -11 -43 -8 5 -8 2 1 -9 17 -21 16 -368 -1
-368 -9 0 -9 -2 -1 -8 16 -10 16 -464 0 -474 -8 -6 -8 -8 1 -8 7 0 11 -19 11
-50 1 -37 -2 -48 -11 -43 -8 5 -8 2 1 -9 17 -21 16 -368 -1 -368 -9 0 -9 -2
-1 -8 16 -10 16 -224 0 -215 -6 4 -5 0 2 -9 9 -11 13 -41 11 -90 l-2 -72 129
1 c86 0 131 -3 136 -11 6 -8 8 -7 8 2 0 20 161 14 177 -7 12 -14 12 -14 8 0
-5 14 10 16 127 16 84 0 136 -4 140 -11 5 -8 8 -7 8 2 0 16 101 16 119 -1 11
-9 13 -9 7 0 -5 10 5 13 39 13 41 0 46 -2 41 -17 -6 -17 -5 -17 7 -1 19 23
166 23 184 -1 12 -15 13 -14 7 1 -5 16 1 18 50 17 34 -1 56 -6 56 -13 0 -8 2
-8 8 0 4 7 42 12 97 12 71 0 92 -4 102 -17 12 -15 13 -14 7 1 -5 16 1 18 50
17 34 -1 56 -6 56 -13 0 -8 2 -8 8 0 9 15 104 14 114 0 5 -8 8 -7 8 2 0 8 17
12 53 12 29 0 59 -6 66 -12 11 -10 13 -10 7 0 -5 9 5 12 39 12 41 0 46 -2 41
-18 -5 -15 -5 -15 6 -2 11 13 42 16 176 17 148 1 163 -1 158 -16 -5 -13 -4
-13 8 2 18 23 105 21 124 -2 11 -15 12 -15 7 0 -5 14 10 16 127 16 84 0 136
-4 140 -11 5 -8 8 -7 8 2 0 16 101 16 119 -1 11 -9 13 -9 7 1 -5 9 5 12 39 12
41 0 46 -2 41 -17 -6 -17 -5 -17 7 -1 19 23 166 23 184 -1 12 -15 13 -14 7 1
-5 16 1 18 50 17 34 -1 56 -6 56 -13 0 -8 2 -8 8 0 4 7 42 12 97 12 71 0 92
-4 102 -17 12 -15 13 -14 7 1 -5 16 1 18 50 17 34 -1 56 -6 56 -13 0 -7 3 -6
8 2 10 14 61 13 81 -2 11 -8 13 -8 7 1 -5 10 8 13 56 14 78 1 131 5 164 13 19
5 24 4 18 -6 -6 -10 -4 -10 9 1 9 7 23 11 31 8 8 -3 16 -1 18 4 2 6 26 11 55
12 28 1 49 5 46 9 -2 5 2 8 11 8 8 0 22 3 32 7 13 5 15 3 9 -8 -5 -8 -1 -7 12
3 11 10 26 18 34 18 8 0 20 5 27 12 9 9 12 9 12 -2 0 -10 3 -11 8 -4 4 6 50
28 102 49 52 20 98 42 102 49 4 6 8 7 8 3 0 -5 15 1 33 12 27 16 36 18 46 8
10 -9 11 -8 6 6 -4 9 -3 17 1 17 20 0 216 136 272 187 14 13 30 20 36 16 6 -3
8 -2 3 2 -4 5 0 17 9 27 14 14 20 16 33 6 13 -10 14 -10 4 1 -9 11 -2 23 34
60 26 25 50 45 55 44 4 -2 7 3 5 10 -1 6 4 11 11 9 8 -1 11 2 7 8 -9 14 31 54
46 45 8 -6 10 -4 4 4 -9 15 54 111 73 111 7 0 10 5 7 11 -4 5 0 18 8 27 18 21
59 93 105 187 19 39 38 78 43 87 5 10 9 25 9 33 0 10 5 13 12 9 7 -4 8 -3 4 4
-4 7 -4 18 1 24 4 7 8 16 9 21 1 4 3 9 4 12 1 3 3 8 4 13 14 58 31 112 38 112
4 0 5 7 2 15 -4 8 -1 21 5 29 6 7 9 15 7 17 -2 2 2 38 10 79 22 114 25 167 26
400 0 149 4 217 12 222 8 6 8 8 0 8 -17 0 -17 110 -1 110 8 0 9 3 1 8 -16 10
-16 504 0 514 8 6 8 8 0 8 -17 0 -17 110 -1 110 8 0 9 3 1 8 -16 10 -16 504 0
514 8 6 8 8 0 8 -17 0 -17 110 -1 110 8 0 9 3 1 8 -16 10 -16 504 0 514 8 6 8
8 0 8 -17 0 -17 110 -1 110 8 0 9 3 1 8 -16 10 -16 504 0 514 8 6 8 8 0 8 -17
0 -17 110 -1 110 8 0 9 3 1 8 -16 10 -16 384 0 375 6 -4 6 0 -2 9 -7 9 -12 43
-11 91 1 41 -1 79 -4 84 -3 4 -291 8 -641 7 -443 0 -636 3 -636 10 0 8 -3 8
-8 0 -10 -15 -952 -15 -952 0 0 7 -3 7 -8 0 -10 -15 -944 -15 -954 0 -5 8 -8
8 -8 0 0 -8 -27 -11 -79 -11 -48 1 -77 5 -74 10 4 6 1 7 -8 1 -19 -12 -97 -15
-105 -3 -3 5 -11 6 -17 2 -19 -11 -101 -11 -116 1 -11 8 -13 8 -8 -1z"/>
<path d="M5595 5250 c-3 -5 -1 -10 4 -10 6 0 11 5 11 10 0 6 -2 10 -4 10 -3 0
-8 -4 -11 -10z"/>
<path d="M5595 5090 c-3 -5 -1 -10 4 -10 6 0 11 5 11 10 0 6 -2 10 -4 10 -3 0
-8 -4 -11 -10z"/>
<path d="M5595 4610 c-3 -5 -1 -10 4 -10 6 0 11 5 11 10 0 6 -2 10 -4 10 -3 0
-8 -4 -11 -10z"/>
<path d="M5595 4450 c-3 -5 -1 -10 4 -10 6 0 11 5 11 10 0 6 -2 10 -4 10 -3 0
-8 -4 -11 -10z"/>
<path d="M5595 3970 c-3 -5 -1 -10 4 -10 6 0 11 5 11 10 0 6 -2 10 -4 10 -3 0
-8 -4 -11 -10z"/>
<path d="M5595 3810 c-3 -5 -1 -10 4 -10 6 0 11 5 11 10 0 6 -2 10 -4 10 -3 0
-8 -4 -11 -10z"/>
<path d="M5595 3330 c-3 -5 -1 -10 4 -10 6 0 11 5 11 10 0 6 -2 10 -4 10 -3 0
-8 -4 -11 -10z"/>
<path d="M5595 3170 c-3 -5 -1 -10 4 -10 6 0 11 5 11 10 0 6 -2 10 -4 10 -3 0
-8 -4 -11 -10z"/>
<path d="M225 3130 c-3 -6 1 -7 9 -4 18 7 21 14 7 14 -6 0 -13 -4 -16 -10z"/>
<path d="M5595 2690 c-3 -5 -1 -10 4 -10 6 0 11 5 11 10 0 6 -2 10 -4 10 -3 0
-8 -4 -11 -10z"/>
<path d="M5595 2530 c-3 -5 -1 -10 4 -10 6 0 11 5 11 10 0 6 -2 10 -4 10 -3 0
-8 -4 -11 -10z"/>
<path d="M225 2170 c-3 -6 1 -7 9 -4 18 7 21 14 7 14 -6 0 -13 -4 -16 -10z"/>
<path d="M5595 2050 c-3 -5 -1 -10 4 -10 6 0 11 5 11 10 0 6 -2 10 -4 10 -3 0
-8 -4 -11 -10z"/>
<path d="M225 1210 c-3 -6 1 -7 9 -4 18 7 21 14 7 14 -6 0 -13 -4 -16 -10z"/>
<path d="M5199 863 c-13 -16 -12 -17 4 -4 9 7 17 15 17 17 0 8 -8 3 -21 -13z"/>
<path d="M2546 248 c3 -5 10 -6 15 -3 13 9 11 12 -6 12 -8 0 -12 -4 -9 -9z"/>
</g>
</svg>
